<?xml version="1.0" encoding="UTF-8" standalone="no"?><svg xmlns="http://www.w3.org/2000/svg" xmlns:xlink="http://www.w3.org/1999/xlink" contentScriptType="application/ecmascript" contentStyleType="text/css" height="509px" preserveAspectRatio="none" style="width:2090px;height:509px;background:#FFFFFF;" version="1.1" viewBox="0 0 2090 509" width="2090px" zoomAndPan="magnify"><defs><filter height="300%" id="f6yvgdo8w1n0v" width="300%" x="-1" y="-1"><feGaussianBlur result="blurOut" stdDeviation="2.0"/><feColorMatrix in="blurOut" result="blurOut2" type="matrix" values="0 0 0 0 0 0 0 0 0 0 0 0 0 0 0 0 0 0 .4 0"/><feOffset dx="4.0" dy="4.0" in="blurOut2" result="blurOut3"/><feBlend in="SourceGraphic" in2="blurOut3" mode="normal"/></filter></defs><g><!--MD5=[fdaf30bd001b7b0b2ef59b8e00fabd54]
cluster difapp::main.dart--><polygon fill="#FFFFFF" filter="url(#f6yvgdo8w1n0v)" points="16,129,157,129,164,151.2969,1722,151.2969,1722,502,16,502,16,129" style="stroke:#000000;stroke-width:1.5;"/><line style="stroke:#000000;stroke-width:1.5;" x1="16" x2="164" y1="151.2969" y2="151.2969"/><text fill="#000000" font-family="sans-serif" font-size="14" font-weight="bold" lengthAdjust="spacing" textLength="135" x="20" y="143.9951">difapp::main.dart</text><!--MD5=[1b91236ccc4e258431d00b8b19fdf6ca]
cluster flutter::src::widgets::framework.dart--><polygon fill="#FFFFFF" filter="url(#f6yvgdo8w1n0v)" points="851,6,1153,6,1160,28.2969,1277,28.2969,1277,105,851,105,851,6" style="stroke:#000000;stroke-width:1.5;"/><line style="stroke:#000000;stroke-width:1.5;" x1="851" x2="1160" y1="28.2969" y2="28.2969"/><text fill="#000000" font-family="sans-serif" font-size="14" font-weight="bold" lengthAdjust="spacing" textLength="296" x="855" y="20.9951">flutter::src::widgets::framework.dart</text><!--MD5=[e06b2be89d5a0e5a906fffa5e578fb31]
cluster flutter::src::widgets::editable_text.dart--><polygon fill="#FFFFFF" filter="url(#f6yvgdo8w1n0v)" points="1746,339,2063,339,2070,361.2969,2073,361.2969,2073,438,1746,438,1746,339" style="stroke:#000000;stroke-width:1.5;"/><line style="stroke:#000000;stroke-width:1.5;" x1="1746" x2="2070" y1="361.2969" y2="361.2969"/><text fill="#000000" font-family="sans-serif" font-size="14" font-weight="bold" lengthAdjust="spacing" textLength="311" x="1750" y="353.9951">flutter::src::widgets::editable_text.dart</text><!--MD5=[416432ae87a69d47506981d1fc4691d1]
class difapp::main.dart::MyApp--><rect codeLine="4" fill="#FEFECE" filter="url(#f6yvgdo8w1n0v)" height="60.8047" id="difapp::main.dart::MyApp" style="stroke:#A80036;stroke-width:1.5;" width="102" x="1041" y="176.5"/><ellipse cx="1069.5" cy="192.5" fill="#ADD1B2" rx="11" ry="11" style="stroke:#A80036;stroke-width:1.0;"/><path d="M1072.4688,198.1406 Q1071.8906,198.4375 1071.25,198.5781 Q1070.6094,198.7344 1069.9063,198.7344 Q1067.4063,198.7344 1066.0781,197.0938 Q1064.7656,195.4375 1064.7656,192.3125 Q1064.7656,189.1875 1066.0781,187.5313 Q1067.4063,185.875 1069.9063,185.875 Q1070.6094,185.875 1071.25,186.0313 Q1071.9063,186.1875 1072.4688,186.4844 L1072.4688,189.2031 Q1071.8438,188.625 1071.25,188.3594 Q1070.6563,188.0781 1070.0313,188.0781 Q1068.6875,188.0781 1068,189.1563 Q1067.3125,190.2188 1067.3125,192.3125 Q1067.3125,194.4063 1068,195.4844 Q1068.6875,196.5469 1070.0313,196.5469 Q1070.6563,196.5469 1071.25,196.2813 Q1071.8438,196 1072.4688,195.4219 L1072.4688,198.1406 Z " fill="#000000"/><text fill="#000000" font-family="sans-serif" font-size="12" lengthAdjust="spacing" textLength="40" x="1086.5" y="196.6543">MyApp</text><line style="stroke:#A80036;stroke-width:1.5;" x1="1042" x2="1142" y1="208.5" y2="208.5"/><line style="stroke:#A80036;stroke-width:1.5;" x1="1042" x2="1142" y1="216.5" y2="216.5"/><ellipse cx="1052" cy="227.5" fill="#84BE84" rx="3" ry="3" style="stroke:#038048;stroke-width:1.0;"/><text fill="#000000" font-family="sans-serif" font-size="11" lengthAdjust="spacing" textLength="76" x="1061" y="230.7104">Widget build()</text><!--MD5=[f7c2bced56d6cc589fb504c0634b102f]
class difapp::main.dart::LoginPage--><rect codeLine="12" fill="#FEFECE" filter="url(#f6yvgdo8w1n0v)" height="60.8047" id="difapp::main.dart::LoginPage" style="stroke:#A80036;stroke-width:1.5;" width="233" x="1473.5" y="176.5"/><ellipse cx="1553.25" cy="192.5" fill="#ADD1B2" rx="11" ry="11" style="stroke:#A80036;stroke-width:1.0;"/><path d="M1556.2188,198.1406 Q1555.6406,198.4375 1555,198.5781 Q1554.3594,198.7344 1553.6563,198.7344 Q1551.1563,198.7344 1549.8281,197.0938 Q1548.5156,195.4375 1548.5156,192.3125 Q1548.5156,189.1875 1549.8281,187.5313 Q1551.1563,185.875 1553.6563,185.875 Q1554.3594,185.875 1555,186.0313 Q1555.6563,186.1875 1556.2188,186.4844 L1556.2188,189.2031 Q1555.5938,188.625 1555,188.3594 Q1554.4063,188.0781 1553.7813,188.0781 Q1552.4375,188.0781 1551.75,189.1563 Q1551.0625,190.2188 1551.0625,192.3125 Q1551.0625,194.4063 1551.75,195.4844 Q1552.4375,196.5469 1553.7813,196.5469 Q1554.4063,196.5469 1555,196.2813 Q1555.5938,196 1556.2188,195.4219 L1556.2188,198.1406 Z " fill="#000000"/><text fill="#000000" font-family="sans-serif" font-size="12" lengthAdjust="spacing" textLength="65" x="1573.75" y="196.6543">LoginPage</text><line style="stroke:#A80036;stroke-width:1.5;" x1="1474.5" x2="1705.5" y1="208.5" y2="208.5"/><line style="stroke:#A80036;stroke-width:1.5;" x1="1474.5" x2="1705.5" y1="216.5" y2="216.5"/><ellipse cx="1484.5" cy="227.5" fill="#84BE84" rx="3" ry="3" style="stroke:#038048;stroke-width:1.0;"/><text fill="#000000" font-family="sans-serif" font-size="11" lengthAdjust="spacing" textLength="207" x="1493.5" y="230.7104">State&lt;StatefulWidget&gt; createState()</text><!--MD5=[53640f6550081c84aaf3c509c6c19e6e]
class difapp::main.dart::_State--><rect codeLine="20" fill="#FEFECE" filter="url(#f6yvgdo8w1n0v)" height="86.4141" id="difapp::main.dart::_State" style="stroke:#A80036;stroke-width:1.5;" width="260" x="1178" y="164"/><ellipse cx="1283.75" cy="180" fill="#ADD1B2" rx="11" ry="11" style="stroke:#A80036;stroke-width:1.0;"/><path d="M1286.7188,185.6406 Q1286.1406,185.9375 1285.5,186.0781 Q1284.8594,186.2344 1284.1563,186.2344 Q1281.6563,186.2344 1280.3281,184.5938 Q1279.0156,182.9375 1279.0156,179.8125 Q1279.0156,176.6875 1280.3281,175.0313 Q1281.6563,173.375 1284.1563,173.375 Q1284.8594,173.375 1285.5,173.5313 Q1286.1563,173.6875 1286.7188,173.9844 L1286.7188,176.7031 Q1286.0938,176.125 1285.5,175.8594 Q1284.9063,175.5781 1284.2813,175.5781 Q1282.9375,175.5781 1282.25,176.6563 Q1281.5625,177.7188 1281.5625,179.8125 Q1281.5625,181.9063 1282.25,182.9844 Q1282.9375,184.0469 1284.2813,184.0469 Q1284.9063,184.0469 1285.5,183.7813 Q1286.0938,183.5 1286.7188,182.9219 L1286.7188,185.6406 Z " fill="#000000"/><text fill="#000000" font-family="sans-serif" font-size="12" lengthAdjust="spacing" textLength="40" x="1304.25" y="184.1543">_State</text><line style="stroke:#A80036;stroke-width:1.5;" x1="1179" x2="1437" y1="196" y2="196"/><ellipse cx="1189" cy="207" rx="3" ry="3" style="stroke:#038048;stroke-width:1.0;fill:none;"/><text fill="#000000" font-family="sans-serif" font-size="11" lengthAdjust="spacing" textLength="210" x="1198" y="210.2104">TextEditingController nameController</text><ellipse cx="1189" cy="219.8047" rx="3" ry="3" style="stroke:#038048;stroke-width:1.0;fill:none;"/><text fill="#000000" font-family="sans-serif" font-size="11" lengthAdjust="spacing" textLength="234" x="1198" y="223.0151">TextEditingController passwordController</text><line style="stroke:#A80036;stroke-width:1.5;" x1="1179" x2="1437" y1="229.6094" y2="229.6094"/><ellipse cx="1189" cy="240.6094" fill="#84BE84" rx="3" ry="3" style="stroke:#038048;stroke-width:1.0;"/><text fill="#000000" font-family="sans-serif" font-size="11" lengthAdjust="spacing" textLength="76" x="1198" y="243.8198">Widget build()</text><!--MD5=[db6de5d9c7ae03e27a452b0a7df26492]
class difapp::main.dart::CategoriesScreen--><rect codeLine="31" fill="#FEFECE" filter="url(#f6yvgdo8w1n0v)" height="73.6094" id="difapp::main.dart::CategoriesScreen" style="stroke:#A80036;stroke-width:1.5;" width="144" x="862" y="170"/><ellipse cx="877" cy="186" fill="#ADD1B2" rx="11" ry="11" style="stroke:#A80036;stroke-width:1.0;"/><path d="M879.9688,191.6406 Q879.3906,191.9375 878.75,192.0781 Q878.1094,192.2344 877.4063,192.2344 Q874.9063,192.2344 873.5781,190.5938 Q872.2656,188.9375 872.2656,185.8125 Q872.2656,182.6875 873.5781,181.0313 Q874.9063,179.375 877.4063,179.375 Q878.1094,179.375 878.75,179.5313 Q879.4063,179.6875 879.9688,179.9844 L879.9688,182.7031 Q879.3438,182.125 878.75,181.8594 Q878.1563,181.5781 877.5313,181.5781 Q876.1875,181.5781 875.5,182.6563 Q874.8125,183.7188 874.8125,185.8125 Q874.8125,187.9063 875.5,188.9844 Q876.1875,190.0469 877.5313,190.0469 Q878.1563,190.0469 878.75,189.7813 Q879.3438,189.5 879.9688,188.9219 L879.9688,191.6406 Z " fill="#000000"/><text fill="#000000" font-family="sans-serif" font-size="12" lengthAdjust="spacing" textLength="112" x="891" y="190.1543">CategoriesScreen</text><line style="stroke:#A80036;stroke-width:1.5;" x1="863" x2="1005" y1="202" y2="202"/><ellipse cx="873" cy="213" rx="3" ry="3" style="stroke:#038048;stroke-width:1.0;fill:none;"/><text fill="#000000" font-family="sans-serif" font-size="11" lengthAdjust="spacing" textLength="93" x="882" y="216.2104">List&lt;String&gt; list</text><line style="stroke:#A80036;stroke-width:1.5;" x1="863" x2="1005" y1="222.8047" y2="222.8047"/><ellipse cx="873" cy="233.8047" fill="#84BE84" rx="3" ry="3" style="stroke:#038048;stroke-width:1.0;"/><text fill="#000000" font-family="sans-serif" font-size="11" lengthAdjust="spacing" textLength="76" x="882" y="237.0151">Widget build()</text><!--MD5=[8bb8f6649314917cf94f916c59cc1489]
class difapp::main.dart::SubcategoriesScreen--><rect codeLine="40" fill="#FEFECE" filter="url(#f6yvgdo8w1n0v)" height="86.4141" id="difapp::main.dart::SubcategoriesScreen" style="stroke:#A80036;stroke-width:1.5;" width="167" x="659.5" y="164"/><ellipse cx="674.5" cy="180" fill="#ADD1B2" rx="11" ry="11" style="stroke:#A80036;stroke-width:1.0;"/><path d="M677.4688,185.6406 Q676.8906,185.9375 676.25,186.0781 Q675.6094,186.2344 674.9063,186.2344 Q672.4063,186.2344 671.0781,184.5938 Q669.7656,182.9375 669.7656,179.8125 Q669.7656,176.6875 671.0781,175.0313 Q672.4063,173.375 674.9063,173.375 Q675.6094,173.375 676.25,173.5313 Q676.9063,173.6875 677.4688,173.9844 L677.4688,176.7031 Q676.8438,176.125 676.25,175.8594 Q675.6563,175.5781 675.0313,175.5781 Q673.6875,175.5781 673,176.6563 Q672.3125,177.7188 672.3125,179.8125 Q672.3125,181.9063 673,182.9844 Q673.6875,184.0469 675.0313,184.0469 Q675.6563,184.0469 676.25,183.7813 Q676.8438,183.5 677.4688,182.9219 L677.4688,185.6406 Z " fill="#000000"/><text fill="#000000" font-family="sans-serif" font-size="12" lengthAdjust="spacing" textLength="135" x="688.5" y="184.1543">SubcategoriesScreen</text><line style="stroke:#A80036;stroke-width:1.5;" x1="660.5" x2="825.5" y1="196" y2="196"/><ellipse cx="670.5" cy="207" rx="3" ry="3" style="stroke:#038048;stroke-width:1.0;fill:none;"/><text fill="#000000" font-family="sans-serif" font-size="11" lengthAdjust="spacing" textLength="87" x="679.5" y="210.2104">String category</text><ellipse cx="670.5" cy="219.8047" rx="3" ry="3" style="stroke:#038048;stroke-width:1.0;fill:none;"/><text fill="#000000" font-family="sans-serif" font-size="11" lengthAdjust="spacing" textLength="93" x="679.5" y="223.0151">List&lt;String&gt; list</text><line style="stroke:#A80036;stroke-width:1.5;" x1="660.5" x2="825.5" y1="229.6094" y2="229.6094"/><ellipse cx="670.5" cy="240.6094" fill="#84BE84" rx="3" ry="3" style="stroke:#038048;stroke-width:1.0;"/><text fill="#000000" font-family="sans-serif" font-size="11" lengthAdjust="spacing" textLength="76" x="679.5" y="243.8198">Widget build()</text><!--MD5=[cdea3a8584e808e3406001c78478e23c]
class difapp::main.dart::ServicesScreen--><rect codeLine="50" fill="#FEFECE" filter="url(#f6yvgdo8w1n0v)" height="86.4141" id="difapp::main.dart::ServicesScreen" style="stroke:#A80036;stroke-width:1.5;" width="136" x="488" y="164"/><ellipse cx="506.6" cy="180" fill="#ADD1B2" rx="11" ry="11" style="stroke:#A80036;stroke-width:1.0;"/><path d="M509.5688,185.6406 Q508.9906,185.9375 508.35,186.0781 Q507.7094,186.2344 507.0063,186.2344 Q504.5063,186.2344 503.1781,184.5938 Q501.8656,182.9375 501.8656,179.8125 Q501.8656,176.6875 503.1781,175.0313 Q504.5063,173.375 507.0063,173.375 Q507.7094,173.375 508.35,173.5313 Q509.0063,173.6875 509.5688,173.9844 L509.5688,176.7031 Q508.9438,176.125 508.35,175.8594 Q507.7563,175.5781 507.1313,175.5781 Q505.7875,175.5781 505.1,176.6563 Q504.4125,177.7188 504.4125,179.8125 Q504.4125,181.9063 505.1,182.9844 Q505.7875,184.0469 507.1313,184.0469 Q507.7563,184.0469 508.35,183.7813 Q508.9438,183.5 509.5688,182.9219 L509.5688,185.6406 Z " fill="#000000"/><text fill="#000000" font-family="sans-serif" font-size="12" lengthAdjust="spacing" textLength="96" x="521.4" y="184.1543">ServicesScreen</text><line style="stroke:#A80036;stroke-width:1.5;" x1="489" x2="623" y1="196" y2="196"/><ellipse cx="499" cy="207" rx="3" ry="3" style="stroke:#038048;stroke-width:1.0;fill:none;"/><text fill="#000000" font-family="sans-serif" font-size="11" lengthAdjust="spacing" textLength="110" x="508" y="210.2104">String subCategory</text><ellipse cx="499" cy="219.8047" rx="3" ry="3" style="stroke:#038048;stroke-width:1.0;fill:none;"/><text fill="#000000" font-family="sans-serif" font-size="11" lengthAdjust="spacing" textLength="93" x="508" y="223.0151">List&lt;String&gt; list</text><line style="stroke:#A80036;stroke-width:1.5;" x1="489" x2="623" y1="229.6094" y2="229.6094"/><ellipse cx="499" cy="240.6094" fill="#84BE84" rx="3" ry="3" style="stroke:#038048;stroke-width:1.0;"/><text fill="#000000" font-family="sans-serif" font-size="11" lengthAdjust="spacing" textLength="76" x="508" y="243.8198">Widget build()</text><!--MD5=[6b0cb3fe9d3a7a94d0d0d6ba1d91389a]
class difapp::main.dart::ServiceRequest--><rect codeLine="60" fill="#FEFECE" filter="url(#f6yvgdo8w1n0v)" height="86.4141" id="difapp::main.dart::ServiceRequest" style="stroke:#A80036;stroke-width:1.5;" width="134" x="319" y="164"/><ellipse cx="336.25" cy="180" fill="#ADD1B2" rx="11" ry="11" style="stroke:#A80036;stroke-width:1.0;"/><path d="M339.2188,185.6406 Q338.6406,185.9375 338,186.0781 Q337.3594,186.2344 336.6563,186.2344 Q334.1563,186.2344 332.8281,184.5938 Q331.5156,182.9375 331.5156,179.8125 Q331.5156,176.6875 332.8281,175.0313 Q334.1563,173.375 336.6563,173.375 Q337.3594,173.375 338,173.5313 Q338.6563,173.6875 339.2188,173.9844 L339.2188,176.7031 Q338.5938,176.125 338,175.8594 Q337.4063,175.5781 336.7813,175.5781 Q335.4375,175.5781 334.75,176.6563 Q334.0625,177.7188 334.0625,179.8125 Q334.0625,181.9063 334.75,182.9844 Q335.4375,184.0469 336.7813,184.0469 Q337.4063,184.0469 338,183.7813 Q338.5938,183.5 339.2188,182.9219 L339.2188,185.6406 Z " fill="#000000"/><text fill="#000000" font-family="sans-serif" font-size="12" lengthAdjust="spacing" textLength="97" x="350.75" y="184.1543">ServiceRequest</text><line style="stroke:#A80036;stroke-width:1.5;" x1="320" x2="452" y1="196" y2="196"/><ellipse cx="330" cy="207" rx="3" ry="3" style="stroke:#038048;stroke-width:1.0;fill:none;"/><text fill="#000000" font-family="sans-serif" font-size="11" lengthAdjust="spacing" textLength="99" x="339" y="210.2104">ServiceDetail one</text><ellipse cx="330" cy="219.8047" rx="3" ry="3" style="stroke:#038048;stroke-width:1.0;fill:none;"/><text fill="#000000" font-family="sans-serif" font-size="11" lengthAdjust="spacing" textLength="98" x="339" y="223.0151">ServiceDetail two</text><ellipse cx="330" cy="232.6094" rx="3" ry="3" style="stroke:#038048;stroke-width:1.0;fill:none;"/><text fill="#000000" font-family="sans-serif" font-size="11" lengthAdjust="spacing" textLength="108" x="339" y="235.8198">ServiceDetail three</text><line style="stroke:#A80036;stroke-width:1.5;" x1="320" x2="452" y1="242.4141" y2="242.4141"/><!--MD5=[30b7345358418acbeaa4cd13ee349293]
class difapp::main.dart::ServiceDetail--><rect codeLine="70" fill="#FEFECE" filter="url(#f6yvgdo8w1n0v)" height="176.0469" id="difapp::main.dart::ServiceDetail" style="stroke:#A80036;stroke-width:1.5;" width="144" x="314" y="310"/><ellipse cx="342.95" cy="326" fill="#ADD1B2" rx="11" ry="11" style="stroke:#A80036;stroke-width:1.0;"/><path d="M345.9188,331.6406 Q345.3406,331.9375 344.7,332.0781 Q344.0594,332.2344 343.3563,332.2344 Q340.8563,332.2344 339.5281,330.5938 Q338.2156,328.9375 338.2156,325.8125 Q338.2156,322.6875 339.5281,321.0313 Q340.8563,319.375 343.3563,319.375 Q344.0594,319.375 344.7,319.5313 Q345.3563,319.6875 345.9188,319.9844 L345.9188,322.7031 Q345.2938,322.125 344.7,321.8594 Q344.1063,321.5781 343.4813,321.5781 Q342.1375,321.5781 341.45,322.6563 Q340.7625,323.7188 340.7625,325.8125 Q340.7625,327.9063 341.45,328.9844 Q342.1375,330.0469 343.4813,330.0469 Q344.1063,330.0469 344.7,329.7813 Q345.2938,329.5 345.9188,328.9219 L345.9188,331.6406 Z " fill="#000000"/><text fill="#000000" font-family="sans-serif" font-size="12" lengthAdjust="spacing" textLength="81" x="360.05" y="330.1543">ServiceDetail</text><line style="stroke:#A80036;stroke-width:1.5;" x1="315" x2="457" y1="342" y2="342"/><ellipse cx="325" cy="353" rx="3" ry="3" style="stroke:#038048;stroke-width:1.0;fill:none;"/><text fill="#000000" font-family="sans-serif" font-size="11" lengthAdjust="spacing" textLength="73" x="334" y="356.2104">int idServicio</text><ellipse cx="325" cy="365.8047" rx="3" ry="3" style="stroke:#038048;stroke-width:1.0;fill:none;"/><text fill="#000000" font-family="sans-serif" font-size="11" lengthAdjust="spacing" textLength="89" x="334" y="369.0151">String direccion</text><ellipse cx="325" cy="378.6094" rx="3" ry="3" style="stroke:#038048;stroke-width:1.0;fill:none;"/><text fill="#000000" font-family="sans-serif" font-size="11" lengthAdjust="spacing" textLength="103" x="334" y="381.8198">String descripcion</text><ellipse cx="325" cy="391.4141" rx="3" ry="3" style="stroke:#038048;stroke-width:1.0;fill:none;"/><text fill="#000000" font-family="sans-serif" font-size="11" lengthAdjust="spacing" textLength="112" x="334" y="394.6245">int fechaPublicacion</text><ellipse cx="325" cy="404.2188" rx="3" ry="3" style="stroke:#038048;stroke-width:1.0;fill:none;"/><text fill="#000000" font-family="sans-serif" font-size="11" lengthAdjust="spacing" textLength="118" x="334" y="407.4292">int fechaVencimiento</text><ellipse cx="325" cy="417.0234" rx="3" ry="3" style="stroke:#038048;stroke-width:1.0;fill:none;"/><text fill="#000000" font-family="sans-serif" font-size="11" lengthAdjust="spacing" textLength="73" x="334" y="420.2339">double cuota</text><ellipse cx="325" cy="429.8281" rx="3" ry="3" style="stroke:#038048;stroke-width:1.0;fill:none;"/><text fill="#000000" font-family="sans-serif" font-size="11" lengthAdjust="spacing" textLength="80" x="334" y="433.0386">String imagen</text><ellipse cx="325" cy="442.6328" rx="3" ry="3" style="stroke:#038048;stroke-width:1.0;fill:none;"/><text fill="#000000" font-family="sans-serif" font-size="11" lengthAdjust="spacing" textLength="112" x="334" y="445.8433">String subcategoria</text><ellipse cx="325" cy="455.4375" rx="3" ry="3" style="stroke:#038048;stroke-width:1.0;fill:none;"/><text fill="#000000" font-family="sans-serif" font-size="11" lengthAdjust="spacing" textLength="99" x="334" y="458.6479">int fechaCreacion</text><ellipse cx="325" cy="468.2422" rx="3" ry="3" style="stroke:#038048;stroke-width:1.0;fill:none;"/><text fill="#000000" font-family="sans-serif" font-size="11" lengthAdjust="spacing" textLength="118" x="334" y="471.4526">int fechaModificacion</text><line style="stroke:#A80036;stroke-width:1.5;" x1="315" x2="457" y1="478.0469" y2="478.0469"/><!--MD5=[1ecf0068c5f0ff2b03d208b9806b5cbd]
class difapp::main.dart::ServiceDetailScreen--><rect codeLine="84" fill="#FEFECE" filter="url(#f6yvgdo8w1n0v)" height="86.4141" id="difapp::main.dart::ServiceDetailScreen" style="stroke:#A80036;stroke-width:1.5;" width="252" x="32" y="164"/><ellipse cx="91.25" cy="180" fill="#ADD1B2" rx="11" ry="11" style="stroke:#A80036;stroke-width:1.0;"/><path d="M94.2188,185.6406 Q93.6406,185.9375 93,186.0781 Q92.3594,186.2344 91.6563,186.2344 Q89.1563,186.2344 87.8281,184.5938 Q86.5156,182.9375 86.5156,179.8125 Q86.5156,176.6875 87.8281,175.0313 Q89.1563,173.375 91.6563,173.375 Q92.3594,173.375 93,173.5313 Q93.6563,173.6875 94.2188,173.9844 L94.2188,176.7031 Q93.5938,176.125 93,175.8594 Q92.4063,175.5781 91.7813,175.5781 Q90.4375,175.5781 89.75,176.6563 Q89.0625,177.7188 89.0625,179.8125 Q89.0625,181.9063 89.75,182.9844 Q90.4375,184.0469 91.7813,184.0469 Q92.4063,184.0469 93,183.7813 Q93.5938,183.5 94.2188,182.9219 L94.2188,185.6406 Z " fill="#000000"/><text fill="#000000" font-family="sans-serif" font-size="12" lengthAdjust="spacing" textLength="125" x="111.75" y="184.1543">ServiceDetailScreen</text><line style="stroke:#A80036;stroke-width:1.5;" x1="33" x2="283" y1="196" y2="196"/><ellipse cx="43" cy="207" rx="3" ry="3" style="stroke:#038048;stroke-width:1.0;fill:none;"/><text fill="#000000" font-family="sans-serif" font-size="11" lengthAdjust="spacing" textLength="79" x="52" y="210.2104">String service</text><ellipse cx="43" cy="219.8047" rx="3" ry="3" style="stroke:#038048;stroke-width:1.0;fill:none;"/><text fill="#000000" font-family="sans-serif" font-size="11" lengthAdjust="spacing" textLength="226" x="52" y="223.0151">Future&lt;ServiceRequest&gt; serviceDetails</text><line style="stroke:#A80036;stroke-width:1.5;" x1="33" x2="283" y1="229.6094" y2="229.6094"/><ellipse cx="43" cy="240.6094" fill="#84BE84" rx="3" ry="3" style="stroke:#038048;stroke-width:1.0;"/><text fill="#000000" font-family="sans-serif" font-size="11" lengthAdjust="spacing" textLength="76" x="52" y="243.8198">Widget build()</text><!--MD5=[efc9ff8382eabd0f0b822d1be18a98a9]
class flutter::src::widgets::framework.dart::StatelessWidget--><rect fill="#FEFECE" filter="url(#f6yvgdo8w1n0v)" height="48" id="flutter::src::widgets::framework.dart::StatelessWidget" style="stroke:#A80036;stroke-width:1.5;" width="134" x="867" y="41"/><ellipse cx="882" cy="57" fill="#ADD1B2" rx="11" ry="11" style="stroke:#A80036;stroke-width:1.0;"/><path d="M884.9688,62.6406 Q884.3906,62.9375 883.75,63.0781 Q883.1094,63.2344 882.4063,63.2344 Q879.9063,63.2344 878.5781,61.5938 Q877.2656,59.9375 877.2656,56.8125 Q877.2656,53.6875 878.5781,52.0313 Q879.9063,50.375 882.4063,50.375 Q883.1094,50.375 883.75,50.5313 Q884.4063,50.6875 884.9688,50.9844 L884.9688,53.7031 Q884.3438,53.125 883.75,52.8594 Q883.1563,52.5781 882.5313,52.5781 Q881.1875,52.5781 880.5,53.6563 Q879.8125,54.7188 879.8125,56.8125 Q879.8125,58.9063 880.5,59.9844 Q881.1875,61.0469 882.5313,61.0469 Q883.1563,61.0469 883.75,60.7813 Q884.3438,60.5 884.9688,59.9219 L884.9688,62.6406 Z " fill="#000000"/><text fill="#000000" font-family="sans-serif" font-size="12" lengthAdjust="spacing" textLength="102" x="896" y="61.1543">StatelessWidget</text><line style="stroke:#A80036;stroke-width:1.5;" x1="868" x2="1000" y1="73" y2="73"/><line style="stroke:#A80036;stroke-width:1.5;" x1="868" x2="1000" y1="81" y2="81"/><!--MD5=[aa3f7eeafec522ba9bc8f59b3155082c]
class flutter::src::widgets::framework.dart::StatefulWidget--><rect fill="#FEFECE" filter="url(#f6yvgdo8w1n0v)" height="48" id="flutter::src::widgets::framework.dart::StatefulWidget" style="stroke:#A80036;stroke-width:1.5;" width="124" x="1137" y="41"/><ellipse cx="1152" cy="57" fill="#ADD1B2" rx="11" ry="11" style="stroke:#A80036;stroke-width:1.0;"/><path d="M1154.9688,62.6406 Q1154.3906,62.9375 1153.75,63.0781 Q1153.1094,63.2344 1152.4063,63.2344 Q1149.9063,63.2344 1148.5781,61.5938 Q1147.2656,59.9375 1147.2656,56.8125 Q1147.2656,53.6875 1148.5781,52.0313 Q1149.9063,50.375 1152.4063,50.375 Q1153.1094,50.375 1153.75,50.5313 Q1154.4063,50.6875 1154.9688,50.9844 L1154.9688,53.7031 Q1154.3438,53.125 1153.75,52.8594 Q1153.1563,52.5781 1152.5313,52.5781 Q1151.1875,52.5781 1150.5,53.6563 Q1149.8125,54.7188 1149.8125,56.8125 Q1149.8125,58.9063 1150.5,59.9844 Q1151.1875,61.0469 1152.5313,61.0469 Q1153.1563,61.0469 1153.75,60.7813 Q1154.3438,60.5 1154.9688,59.9219 L1154.9688,62.6406 Z " fill="#000000"/><text fill="#000000" font-family="sans-serif" font-size="12" lengthAdjust="spacing" textLength="92" x="1166" y="61.1543">StatefulWidget</text><line style="stroke:#A80036;stroke-width:1.5;" x1="1138" x2="1260" y1="73" y2="73"/><line style="stroke:#A80036;stroke-width:1.5;" x1="1138" x2="1260" y1="81" y2="81"/><!--MD5=[9432619776e71801fd4b58594ef73518]
class flutter::src::widgets::framework.dart::State--><rect fill="#FEFECE" filter="url(#f6yvgdo8w1n0v)" height="48" id="flutter::src::widgets::framework.dart::State" style="stroke:#A80036;stroke-width:1.5;" width="66" x="1036" y="41"/><ellipse cx="1051" cy="57" fill="#ADD1B2" rx="11" ry="11" style="stroke:#A80036;stroke-width:1.0;"/><path d="M1053.9688,62.6406 Q1053.3906,62.9375 1052.75,63.0781 Q1052.1094,63.2344 1051.4063,63.2344 Q1048.9063,63.2344 1047.5781,61.5938 Q1046.2656,59.9375 1046.2656,56.8125 Q1046.2656,53.6875 1047.5781,52.0313 Q1048.9063,50.375 1051.4063,50.375 Q1052.1094,50.375 1052.75,50.5313 Q1053.4063,50.6875 1053.9688,50.9844 L1053.9688,53.7031 Q1053.3438,53.125 1052.75,52.8594 Q1052.1563,52.5781 1051.5313,52.5781 Q1050.1875,52.5781 1049.5,53.6563 Q1048.8125,54.7188 1048.8125,56.8125 Q1048.8125,58.9063 1049.5,59.9844 Q1050.1875,61.0469 1051.5313,61.0469 Q1052.1563,61.0469 1052.75,60.7813 Q1053.3438,60.5 1053.9688,59.9219 L1053.9688,62.6406 Z " fill="#000000"/><text fill="#000000" font-family="sans-serif" font-size="12" lengthAdjust="spacing" textLength="34" x="1065" y="61.1543">State</text><line style="stroke:#A80036;stroke-width:1.5;" x1="1037" x2="1101" y1="73" y2="73"/><line style="stroke:#A80036;stroke-width:1.5;" x1="1037" x2="1101" y1="81" y2="81"/><!--MD5=[40b395e1d1237e82679a917749c88d40]
class flutter::src::widgets::editable_text.dart::TextEditingController--><rect fill="#FEFECE" filter="url(#f6yvgdo8w1n0v)" height="48" id="flutter::src::widgets::editable_text.dart::TextEditingController" style="stroke:#A80036;stroke-width:1.5;" width="162" x="1762" y="374"/><ellipse cx="1777" cy="390" fill="#ADD1B2" rx="11" ry="11" style="stroke:#A80036;stroke-width:1.0;"/><path d="M1779.9688,395.6406 Q1779.3906,395.9375 1778.75,396.0781 Q1778.1094,396.2344 1777.4063,396.2344 Q1774.9063,396.2344 1773.5781,394.5938 Q1772.2656,392.9375 1772.2656,389.8125 Q1772.2656,386.6875 1773.5781,385.0313 Q1774.9063,383.375 1777.4063,383.375 Q1778.1094,383.375 1778.75,383.5313 Q1779.4063,383.6875 1779.9688,383.9844 L1779.9688,386.7031 Q1779.3438,386.125 1778.75,385.8594 Q1778.1563,385.5781 1777.5313,385.5781 Q1776.1875,385.5781 1775.5,386.6563 Q1774.8125,387.7188 1774.8125,389.8125 Q1774.8125,391.9063 1775.5,392.9844 Q1776.1875,394.0469 1777.5313,394.0469 Q1778.1563,394.0469 1778.75,393.7813 Q1779.3438,393.5 1779.9688,392.9219 L1779.9688,395.6406 Z " fill="#000000"/><text fill="#000000" font-family="sans-serif" font-size="12" lengthAdjust="spacing" textLength="130" x="1791" y="394.1543">TextEditingController</text><line style="stroke:#A80036;stroke-width:1.5;" x1="1763" x2="1923" y1="406" y2="406"/><line style="stroke:#A80036;stroke-width:1.5;" x1="1763" x2="1923" y1="414" y2="414"/><!--MD5=[b07fed919d1b578a8e7b3d8b7853eeaf]
reverse link flutter::src::widgets::framework.dart::StatelessWidget to difapp::main.dart::MyApp--><path codeLine="9" d="M995.74,99.75 C1005.61,106.25 1015.39,113.42 1024,121 C1042.43,137.24 1059.68,158.91 1072.19,176.3 " fill="none" id="flutter::src::widgets::framework.dart::StatelessWidget-backto-difapp::main.dart::MyApp" style="stroke:#A80036;stroke-width:1.0;"/><polygon fill="none" points="991.98,105.66,978.68,89.16,999.37,93.77,991.98,105.66" style="stroke:#A80036;stroke-width:1.0;"/><!--MD5=[5af186e35d55c6ef3c3bc66e60ff7bfd]
reverse link flutter::src::widgets::framework.dart::StatefulWidget to difapp::main.dart::LoginPage--><path codeLine="17" d="M1281.06,75.98 C1332.64,84.09 1399.82,98.04 1456,121 C1490.43,135.07 1525.81,157.94 1551.56,176.41 " fill="none" id="flutter::src::widgets::framework.dart::StatefulWidget-backto-difapp::main.dart::LoginPage" style="stroke:#A80036;stroke-width:1.0;"/><polygon fill="none" points="1279.8,82.88,1261.05,73.01,1281.86,69.03,1279.8,82.88" style="stroke:#A80036;stroke-width:1.0;"/><!--MD5=[468c56ae8ef327e5b63fb06d45c9d4eb]
reverse link difapp::main.dart::_State to flutter::src::widgets::editable_text.dart::TextEditingController--><path codeLine="27" d="M1451.06,248.73 C1452.71,249.16 1454.36,249.58 1456,250 C1573.45,279.89 1611.47,260.29 1722,310 C1758.1,326.24 1794.27,354.14 1817.53,373.97 " fill="none" id="difapp::main.dart::_State-backto-flutter::src::widgets::editable_text.dart::TextEditingController" style="stroke:#A80036;stroke-width:1.0;"/><polygon fill="#FFFFFF" points="1438.24,245.38,1443.0335,250.7672,1449.85,248.4144,1445.0565,243.0272,1438.24,245.38" style="stroke:#A80036;stroke-width:1.0;"/><!--MD5=[7980f4b92c8b34d0225b3fd671229fb0]
reverse link flutter::src::widgets::framework.dart::State to difapp::main.dart::_State--><path codeLine="28" d="M1103.81,102.51 C1108.93,106.51 1114.38,110.15 1120,113 C1136.56,121.39 1143.61,114.49 1161,121 C1190.26,131.96 1220.49,148.42 1245.88,163.94 " fill="none" id="flutter::src::widgets::framework.dart::State-backto-difapp::main.dart::_State" style="stroke:#A80036;stroke-width:1.0;"/><polygon fill="none" points="1099.03,107.63,1088.79,89.07,1108.37,97.2,1099.03,107.63" style="stroke:#A80036;stroke-width:1.0;"/><!--MD5=[c1891dec7b0059b0029cfa44dc2ac8fe]
reverse link flutter::src::widgets::framework.dart::StatelessWidget to difapp::main.dart::CategoriesScreen--><path codeLine="37" d="M934,109.31 C934,128.77 934,151.45 934,169.96 " fill="none" id="flutter::src::widgets::framework.dart::StatelessWidget-backto-difapp::main.dart::CategoriesScreen" style="stroke:#A80036;stroke-width:1.0;"/><polygon fill="none" points="927,109.12,934,89.12,941,109.12,927,109.12" style="stroke:#A80036;stroke-width:1.0;"/><!--MD5=[8fccbd5a4c1c34a02f4fcd669c103d61]
reverse link flutter::src::widgets::framework.dart::StatelessWidget to difapp::main.dart::SubcategoriesScreen--><path codeLine="47" d="M876.76,99.72 C866.03,106.5 855.04,113.77 845,121 C826.67,134.2 807.42,149.75 790.65,163.92 " fill="none" id="flutter::src::widgets::framework.dart::StatelessWidget-backto-difapp::main.dart::SubcategoriesScreen" style="stroke:#A80036;stroke-width:1.0;"/><polygon fill="none" points="873.09,93.75,893.79,89.2,880.45,105.66,873.09,93.75" style="stroke:#A80036;stroke-width:1.0;"/><!--MD5=[d495a7da161b41b790ca8a67ce6839e1]
reverse link flutter::src::widgets::framework.dart::StatelessWidget to difapp::main.dart::ServicesScreen--><path codeLine="57" d="M846.8,69.08 C786.34,74.32 705.59,87.66 642,121 C622.11,131.43 603.82,147.99 589.27,163.73 " fill="none" id="flutter::src::widgets::framework.dart::StatelessWidget-backto-difapp::main.dart::ServicesScreen" style="stroke:#A80036;stroke-width:1.0;"/><polygon fill="none" points="846.41,62.09,866.88,67.57,847.46,76.05,846.41,62.09" style="stroke:#A80036;stroke-width:1.0;"/><!--MD5=[beef02ca6d5cc16bbb839d3e534e8a2b]
reverse link difapp::main.dart::ServiceRequest to difapp::main.dart::ServiceDetail--><path codeLine="67" d="M386,263.79 C386,278.26 386,294.2 386,309.87 " fill="none" id="difapp::main.dart::ServiceRequest-backto-difapp::main.dart::ServiceDetail" style="stroke:#A80036;stroke-width:1.0;"/><polygon fill="#FFFFFF" points="386,250.42,382,256.42,386,262.42,390,256.42,386,250.42" style="stroke:#A80036;stroke-width:1.0;"/><!--MD5=[12ca3f4a04c02c0c05a93d36d5710ea1]
reverse link flutter::src::widgets::framework.dart::StatelessWidget to difapp::main.dart::ServiceDetailScreen--><path codeLine="91" d="M846.84,68.82 C697.94,74.42 401.05,89.27 302,121 C271.73,130.7 241.01,147.65 215.76,163.88 " fill="none" id="flutter::src::widgets::framework.dart::StatelessWidget-backto-difapp::main.dart::ServiceDetailScreen" style="stroke:#A80036;stroke-width:1.0;"/><polygon fill="none" points="846.59,61.82,866.84,68.09,847.1,75.81,846.59,61.82" style="stroke:#A80036;stroke-width:1.0;"/><!--MD5=[ae3386d5dd67c71d6c885949105e86ed]
@startuml
set namespaceSeparator ::


class "difapp::main.dart::MyApp" {
  +Widget build()
}


"flutter::src::widgets::framework.dart::StatelessWidget" <|- - "difapp::main.dart::MyApp"


class "difapp::main.dart::LoginPage" {
  +State<StatefulWidget> createState()
}


"flutter::src::widgets::framework.dart::StatefulWidget" <|- - "difapp::main.dart::LoginPage"


class "difapp::main.dart::_State" {
  +TextEditingController nameController
  +TextEditingController passwordController
  +Widget build()
}


"difapp::main.dart::_State" o- - "flutter::src::widgets::editable_text.dart::TextEditingController"
"flutter::src::widgets::framework.dart::State" <|- - "difapp::main.dart::_State"


class "difapp::main.dart::CategoriesScreen" {
  +List<String> list
  +Widget build()
}


"flutter::src::widgets::framework.dart::StatelessWidget" <|- - "difapp::main.dart::CategoriesScreen"


class "difapp::main.dart::SubcategoriesScreen" {
  +String category
  +List<String> list
  +Widget build()
}


"flutter::src::widgets::framework.dart::StatelessWidget" <|- - "difapp::main.dart::SubcategoriesScreen"


class "difapp::main.dart::ServicesScreen" {
  +String subCategory
  +List<String> list
  +Widget build()
}


"flutter::src::widgets::framework.dart::StatelessWidget" <|- - "difapp::main.dart::ServicesScreen"


class "difapp::main.dart::ServiceRequest" {
  +ServiceDetail one
  +ServiceDetail two
  +ServiceDetail three
}


"difapp::main.dart::ServiceRequest" o- - "difapp::main.dart::ServiceDetail"


class "difapp::main.dart::ServiceDetail" {
  +int idServicio
  +String direccion
  +String descripcion
  +int fechaPublicacion
  +int fechaVencimiento
  +double cuota
  +String imagen
  +String subcategoria
  +int fechaCreacion
  +int fechaModificacion
}


class "difapp::main.dart::ServiceDetailScreen" {
  +String service
  +Future<ServiceRequest> serviceDetails
  +Widget build()
}


"flutter::src::widgets::framework.dart::StatelessWidget" <|- - "difapp::main.dart::ServiceDetailScreen"
@enduml

PlantUML version 1.2021.7(Sun May 23 12:40:07 UTC 2021)
(GPL source distribution)
Java Runtime: OpenJDK Runtime Environment
JVM: OpenJDK 64-Bit Server VM
Default Encoding: UTF-8
Language: en
Country: US
--></g></svg>